<svg xmlns="http://www.w3.org/2000/svg" viewBox="0 0 100 100" preserveAspectRatio="xMidYMid" width="146" height="146" style="shape-rendering: auto; display: block; background: transparent;" xmlns:xlink="http://www.w3.org/1999/xlink"><g><g transform="rotate(0 50 50)">
  <rect fill="#000000" height="6" width="13" ry="1.82" rx="1.82" y="27" x="43.5">
    <animate repeatCount="indefinite" begin="-0.972972972972973s" dur="1s" keyTimes="0;1" values="1;0" attributeName="opacity"></animate>
  </rect>
</g><g transform="rotate(9.72972972972973 50 50)">
  <rect fill="#000000" height="6" width="13" ry="1.82" rx="1.82" y="27" x="43.5">
    <animate repeatCount="indefinite" begin="-0.9459459459459459s" dur="1s" keyTimes="0;1" values="1;0" attributeName="opacity"></animate>
  </rect>
</g><g transform="rotate(19.45945945945946 50 50)">
  <rect fill="#000000" height="6" width="13" ry="1.82" rx="1.82" y="27" x="43.5">
    <animate repeatCount="indefinite" begin="-0.918918918918919s" dur="1s" keyTimes="0;1" values="1;0" attributeName="opacity"></animate>
  </rect>
</g><g transform="rotate(29.18918918918919 50 50)">
  <rect fill="#000000" height="6" width="13" ry="1.82" rx="1.82" y="27" x="43.5">
    <animate repeatCount="indefinite" begin="-0.8918918918918919s" dur="1s" keyTimes="0;1" values="1;0" attributeName="opacity"></animate>
  </rect>
</g><g transform="rotate(38.91891891891892 50 50)">
  <rect fill="#000000" height="6" width="13" ry="1.82" rx="1.82" y="27" x="43.5">
    <animate repeatCount="indefinite" begin="-0.8648648648648649s" dur="1s" keyTimes="0;1" values="1;0" attributeName="opacity"></animate>
  </rect>
</g><g transform="rotate(48.648648648648646 50 50)">
  <rect fill="#000000" height="6" width="13" ry="1.82" rx="1.82" y="27" x="43.5">
    <animate repeatCount="indefinite" begin="-0.8378378378378378s" dur="1s" keyTimes="0;1" values="1;0" attributeName="opacity"></animate>
  </rect>
</g><g transform="rotate(58.37837837837838 50 50)">
  <rect fill="#000000" height="6" width="13" ry="1.82" rx="1.82" y="27" x="43.5">
    <animate repeatCount="indefinite" begin="-0.8108108108108109s" dur="1s" keyTimes="0;1" values="1;0" attributeName="opacity"></animate>
  </rect>
</g><g transform="rotate(68.10810810810811 50 50)">
  <rect fill="#000000" height="6" width="13" ry="1.82" rx="1.82" y="27" x="43.5">
    <animate repeatCount="indefinite" begin="-0.7837837837837838s" dur="1s" keyTimes="0;1" values="1;0" attributeName="opacity"></animate>
  </rect>
</g><g transform="rotate(77.83783783783784 50 50)">
  <rect fill="#000000" height="6" width="13" ry="1.82" rx="1.82" y="27" x="43.5">
    <animate repeatCount="indefinite" begin="-0.7567567567567568s" dur="1s" keyTimes="0;1" values="1;0" attributeName="opacity"></animate>
  </rect>
</g><g transform="rotate(87.56756756756756 50 50)">
  <rect fill="#000000" height="6" width="13" ry="1.82" rx="1.82" y="27" x="43.5">
    <animate repeatCount="indefinite" begin="-0.7297297297297297s" dur="1s" keyTimes="0;1" values="1;0" attributeName="opacity"></animate>
  </rect>
</g><g transform="rotate(97.29729729729729 50 50)">
  <rect fill="#000000" height="6" width="13" ry="1.82" rx="1.82" y="27" x="43.5">
    <animate repeatCount="indefinite" begin="-0.7027027027027027s" dur="1s" keyTimes="0;1" values="1;0" attributeName="opacity"></animate>
  </rect>
</g><g transform="rotate(107.02702702702703 50 50)">
  <rect fill="#000000" height="6" width="13" ry="1.82" rx="1.82" y="27" x="43.5">
    <animate repeatCount="indefinite" begin="-0.6756756756756757s" dur="1s" keyTimes="0;1" values="1;0" attributeName="opacity"></animate>
  </rect>
</g><g transform="rotate(116.75675675675676 50 50)">
  <rect fill="#000000" height="6" width="13" ry="1.82" rx="1.82" y="27" x="43.5">
    <animate repeatCount="indefinite" begin="-0.6486486486486487s" dur="1s" keyTimes="0;1" values="1;0" attributeName="opacity"></animate>
  </rect>
</g><g transform="rotate(126.48648648648648 50 50)">
  <rect fill="#000000" height="6" width="13" ry="1.82" rx="1.82" y="27" x="43.5">
    <animate repeatCount="indefinite" begin="-0.6216216216216216s" dur="1s" keyTimes="0;1" values="1;0" attributeName="opacity"></animate>
  </rect>
</g><g transform="rotate(136.21621621621622 50 50)">
  <rect fill="#000000" height="6" width="13" ry="1.82" rx="1.82" y="27" x="43.5">
    <animate repeatCount="indefinite" begin="-0.5945945945945946s" dur="1s" keyTimes="0;1" values="1;0" attributeName="opacity"></animate>
  </rect>
</g><g transform="rotate(145.94594594594594 50 50)">
  <rect fill="#000000" height="6" width="13" ry="1.82" rx="1.82" y="27" x="43.5">
    <animate repeatCount="indefinite" begin="-0.5675675675675675s" dur="1s" keyTimes="0;1" values="1;0" attributeName="opacity"></animate>
  </rect>
</g><g transform="rotate(155.67567567567568 50 50)">
  <rect fill="#000000" height="6" width="13" ry="1.82" rx="1.82" y="27" x="43.5">
    <animate repeatCount="indefinite" begin="-0.5405405405405406s" dur="1s" keyTimes="0;1" values="1;0" attributeName="opacity"></animate>
  </rect>
</g><g transform="rotate(165.40540540540542 50 50)">
  <rect fill="#000000" height="6" width="13" ry="1.82" rx="1.82" y="27" x="43.5">
    <animate repeatCount="indefinite" begin="-0.5135135135135135s" dur="1s" keyTimes="0;1" values="1;0" attributeName="opacity"></animate>
  </rect>
</g><g transform="rotate(175.13513513513513 50 50)">
  <rect fill="#000000" height="6" width="13" ry="1.82" rx="1.82" y="27" x="43.5">
    <animate repeatCount="indefinite" begin="-0.4864864864864865s" dur="1s" keyTimes="0;1" values="1;0" attributeName="opacity"></animate>
  </rect>
</g><g transform="rotate(184.86486486486487 50 50)">
  <rect fill="#000000" height="6" width="13" ry="1.82" rx="1.82" y="27" x="43.5">
    <animate repeatCount="indefinite" begin="-0.4594594594594595s" dur="1s" keyTimes="0;1" values="1;0" attributeName="opacity"></animate>
  </rect>
</g><g transform="rotate(194.59459459459458 50 50)">
  <rect fill="#000000" height="6" width="13" ry="1.82" rx="1.82" y="27" x="43.5">
    <animate repeatCount="indefinite" begin="-0.43243243243243246s" dur="1s" keyTimes="0;1" values="1;0" attributeName="opacity"></animate>
  </rect>
</g><g transform="rotate(204.32432432432432 50 50)">
  <rect fill="#000000" height="6" width="13" ry="1.82" rx="1.82" y="27" x="43.5">
    <animate repeatCount="indefinite" begin="-0.40540540540540543s" dur="1s" keyTimes="0;1" values="1;0" attributeName="opacity"></animate>
  </rect>
</g><g transform="rotate(214.05405405405406 50 50)">
  <rect fill="#000000" height="6" width="13" ry="1.82" rx="1.82" y="27" x="43.5">
    <animate repeatCount="indefinite" begin="-0.3783783783783784s" dur="1s" keyTimes="0;1" values="1;0" attributeName="opacity"></animate>
  </rect>
</g><g transform="rotate(223.78378378378378 50 50)">
  <rect fill="#000000" height="6" width="13" ry="1.82" rx="1.82" y="27" x="43.5">
    <animate repeatCount="indefinite" begin="-0.35135135135135137s" dur="1s" keyTimes="0;1" values="1;0" attributeName="opacity"></animate>
  </rect>
</g><g transform="rotate(233.51351351351352 50 50)">
  <rect fill="#000000" height="6" width="13" ry="1.82" rx="1.82" y="27" x="43.5">
    <animate repeatCount="indefinite" begin="-0.32432432432432434s" dur="1s" keyTimes="0;1" values="1;0" attributeName="opacity"></animate>
  </rect>
</g><g transform="rotate(243.24324324324326 50 50)">
  <rect fill="#000000" height="6" width="13" ry="1.82" rx="1.82" y="27" x="43.5">
    <animate repeatCount="indefinite" begin="-0.2972972972972973s" dur="1s" keyTimes="0;1" values="1;0" attributeName="opacity"></animate>
  </rect>
</g><g transform="rotate(252.97297297297297 50 50)">
  <rect fill="#000000" height="6" width="13" ry="1.82" rx="1.82" y="27" x="43.5">
    <animate repeatCount="indefinite" begin="-0.2702702702702703s" dur="1s" keyTimes="0;1" values="1;0" attributeName="opacity"></animate>
  </rect>
</g><g transform="rotate(262.7027027027027 50 50)">
  <rect fill="#000000" height="6" width="13" ry="1.82" rx="1.82" y="27" x="43.5">
    <animate repeatCount="indefinite" begin="-0.24324324324324326s" dur="1s" keyTimes="0;1" values="1;0" attributeName="opacity"></animate>
  </rect>
</g><g transform="rotate(272.43243243243245 50 50)">
  <rect fill="#000000" height="6" width="13" ry="1.82" rx="1.82" y="27" x="43.5">
    <animate repeatCount="indefinite" begin="-0.21621621621621623s" dur="1s" keyTimes="0;1" values="1;0" attributeName="opacity"></animate>
  </rect>
</g><g transform="rotate(282.1621621621622 50 50)">
  <rect fill="#000000" height="6" width="13" ry="1.82" rx="1.82" y="27" x="43.5">
    <animate repeatCount="indefinite" begin="-0.1891891891891892s" dur="1s" keyTimes="0;1" values="1;0" attributeName="opacity"></animate>
  </rect>
</g><g transform="rotate(291.8918918918919 50 50)">
  <rect fill="#000000" height="6" width="13" ry="1.82" rx="1.82" y="27" x="43.5">
    <animate repeatCount="indefinite" begin="-0.16216216216216217s" dur="1s" keyTimes="0;1" values="1;0" attributeName="opacity"></animate>
  </rect>
</g><g transform="rotate(301.6216216216216 50 50)">
  <rect fill="#000000" height="6" width="13" ry="1.82" rx="1.82" y="27" x="43.5">
    <animate repeatCount="indefinite" begin="-0.13513513513513514s" dur="1s" keyTimes="0;1" values="1;0" attributeName="opacity"></animate>
  </rect>
</g><g transform="rotate(311.35135135135135 50 50)">
  <rect fill="#000000" height="6" width="13" ry="1.82" rx="1.82" y="27" x="43.5">
    <animate repeatCount="indefinite" begin="-0.10810810810810811s" dur="1s" keyTimes="0;1" values="1;0" attributeName="opacity"></animate>
  </rect>
</g><g transform="rotate(321.0810810810811 50 50)">
  <rect fill="#000000" height="6" width="13" ry="1.82" rx="1.82" y="27" x="43.5">
    <animate repeatCount="indefinite" begin="-0.08108108108108109s" dur="1s" keyTimes="0;1" values="1;0" attributeName="opacity"></animate>
  </rect>
</g><g transform="rotate(330.81081081081084 50 50)">
  <rect fill="#000000" height="6" width="13" ry="1.82" rx="1.82" y="27" x="43.5">
    <animate repeatCount="indefinite" begin="-0.05405405405405406s" dur="1s" keyTimes="0;1" values="1;0" attributeName="opacity"></animate>
  </rect>
</g><g transform="rotate(340.5405405405405 50 50)">
  <rect fill="#000000" height="6" width="13" ry="1.82" rx="1.82" y="27" x="43.5">
    <animate repeatCount="indefinite" begin="-0.02702702702702703s" dur="1s" keyTimes="0;1" values="1;0" attributeName="opacity"></animate>
  </rect>
</g><g transform="rotate(350.27027027027026 50 50)">
  <rect fill="#000000" height="6" width="13" ry="1.82" rx="1.82" y="27" x="43.5">
    <animate repeatCount="indefinite" begin="0s" dur="1s" keyTimes="0;1" values="1;0" attributeName="opacity"></animate>
  </rect>
</g><g></g></g><!-- [ldio] generated by https://loading.io --></svg>